<svg width="200" height="64" viewBox="0 0 200 64" fill="none" xmlns="http://www.w3.org/2000/svg">
<rect width="200" height="64" fill="#212121"/>
<path d="M37.7656 10.9863H32.1553V30H29.4746V10.9863H23.8789V8.67188H37.7656V10.9863ZM39.6916 15.7764C40.6779 14.4971 41.9377 13.8574 43.4709 13.8574C46.2736 13.8574 47.6945 15.7275 47.7336 19.4678V30H45.1555V19.585C45.1555 18.3447 44.9455 17.4658 44.5256 16.9482C44.1154 16.4209 43.4953 16.1572 42.6652 16.1572C42.0207 16.1572 41.4396 16.3721 40.9221 16.8018C40.4143 17.2314 40.0041 17.793 39.6916 18.4863V30H37.0988V7.5H39.6916V15.7764ZM53.8197 30.293C51.8471 30.293 50.3334 29.707 49.2787 28.5352C48.224 27.3535 47.6869 25.625 47.6674 23.3496V21.4307C47.6674 19.0674 48.1801 17.2168 49.2055 15.8789C50.2406 14.5312 51.6811 13.8574 53.5268 13.8574C55.3822 13.8574 56.7689 14.4482 57.6869 15.6299C58.6049 16.8115 59.0736 18.6523 59.0932 21.1523V22.8516H50.2455V23.2178C50.2455 24.917 50.5629 26.1523 51.1977 26.9238C51.8422 27.6953 52.765 28.0811 53.9662 28.0811C54.7279 28.0811 55.3969 27.9395 55.973 27.6562C56.559 27.3633 57.1059 26.9043 57.6137 26.2793L58.9613 27.9199C57.8383 29.502 56.1244 30.293 53.8197 30.293ZM53.5268 16.084C52.4525 16.084 51.6566 16.4551 51.1391 17.1973C50.6215 17.9297 50.3285 19.0723 50.2602 20.625H56.5004V20.2734C56.432 18.7695 56.1586 17.6953 55.6801 17.0508C55.2113 16.4062 54.4936 16.084 53.5268 16.084Z" fill="#FFD500"/>
<path d="M148.3 57V35.6719H154.379C156.322 35.6719 157.782 36.1455 158.759 37.0928C159.745 38.04 160.238 39.4609 160.238 41.3555C160.238 42.3516 159.989 43.2305 159.491 43.9922C158.993 44.7539 158.319 45.3447 157.47 45.7646C158.446 46.0576 159.218 46.6582 159.784 47.5664C160.36 48.4746 160.648 49.5684 160.648 50.8477C160.648 52.7617 160.121 54.2656 159.066 55.3594C158.021 56.4531 156.527 57 154.584 57H148.3ZM150.98 47.0244V54.7002H154.643C155.658 54.7002 156.464 54.3682 157.06 53.7041C157.655 53.0303 157.953 52.0879 157.953 50.877C157.953 48.3086 156.869 47.0244 154.701 47.0244H150.98ZM150.98 44.7686H154.423C155.351 44.7686 156.098 44.4561 156.664 43.8311C157.24 43.2061 157.528 42.376 157.528 41.3408C157.528 40.1689 157.27 39.3193 156.752 38.792C156.234 38.2549 155.443 37.9863 154.379 37.9863H150.98V44.7686ZM169.02 57C168.863 56.6582 168.751 56.082 168.683 55.2715C167.765 56.6191 166.593 57.293 165.167 57.293C163.732 57.293 162.609 56.8926 161.798 56.0918C160.997 55.2812 160.597 54.1436 160.597 52.6787C160.597 51.0674 161.144 49.7881 162.238 48.8408C163.331 47.8936 164.83 47.4102 166.735 47.3906H168.639V45.7061C168.639 44.7588 168.429 44.085 168.009 43.6846C167.589 43.2842 166.949 43.084 166.09 43.084C165.309 43.084 164.674 43.3184 164.186 43.7871C163.697 44.2461 163.453 44.832 163.453 45.5449H160.861C160.861 44.7344 161.1 43.9629 161.578 43.2305C162.057 42.4883 162.701 41.9072 163.512 41.4873C164.322 41.0674 165.226 40.8574 166.222 40.8574C167.843 40.8574 169.073 41.2627 169.913 42.0732C170.763 42.874 171.197 44.0459 171.217 45.5889V53.5869C171.227 54.8076 171.393 55.8672 171.715 56.7656V57H169.02ZM165.563 54.9346C166.197 54.9346 166.803 54.7588 167.379 54.4072C167.955 54.0557 168.375 53.6162 168.639 53.0889V49.3096H167.174C165.944 49.3291 164.972 49.6074 164.259 50.1445C163.546 50.6719 163.19 51.4141 163.19 52.3711C163.19 53.2695 163.37 53.9238 163.732 54.334C164.093 54.7344 164.703 54.9346 165.563 54.9346ZM179.5 52.9424C179.5 52.3857 179.29 51.9072 178.871 51.5068C178.451 51.1064 177.64 50.6377 176.439 50.1006C175.042 49.5244 174.056 49.0312 173.48 48.6211C172.913 48.2109 172.489 47.7471 172.205 47.2295C171.922 46.7021 171.781 46.0771 171.781 45.3545C171.781 44.0654 172.249 42.9961 173.187 42.1465C174.134 41.2871 175.34 40.8574 176.805 40.8574C178.348 40.8574 179.588 41.3066 180.526 42.2051C181.463 43.1035 181.932 44.2559 181.932 45.6621H179.354C179.354 44.9492 179.115 44.3438 178.636 43.8457C178.158 43.3379 177.547 43.084 176.805 43.084C176.043 43.084 175.443 43.2842 175.003 43.6846C174.574 44.0752 174.359 44.6025 174.359 45.2666C174.359 45.7939 174.515 46.2188 174.828 46.541C175.15 46.8633 175.916 47.2881 177.127 47.8154C179.051 48.5674 180.36 49.3047 181.053 50.0273C181.746 50.7402 182.093 51.6484 182.093 52.752C182.093 54.1289 181.62 55.2324 180.672 56.0625C179.725 56.8828 178.455 57.293 176.864 57.293C175.213 57.293 173.875 56.8193 172.85 55.8721C171.825 54.9248 171.312 53.7236 171.312 52.2686H173.919C173.949 53.1475 174.217 53.8359 174.725 54.334C175.233 54.832 175.946 55.0811 176.864 55.0811C177.723 55.0811 178.377 54.8906 178.827 54.5098C179.276 54.1191 179.5 53.5967 179.5 52.9424ZM187.696 57.293C185.723 57.293 184.21 56.707 183.155 55.5352C182.1 54.3535 181.563 52.625 181.544 50.3496V48.4307C181.544 46.0674 182.056 44.2168 183.082 42.8789C184.117 41.5312 185.557 40.8574 187.403 40.8574C189.258 40.8574 190.645 41.4482 191.563 42.6299C192.481 43.8115 192.95 45.6523 192.969 48.1523V49.8516H184.122V50.2178C184.122 51.917 184.439 53.1523 185.074 53.9238C185.718 54.6953 186.641 55.0811 187.842 55.0811C188.604 55.0811 189.273 54.9395 189.849 54.6562C190.435 54.3633 190.982 53.9043 191.49 53.2793L192.838 54.9199C191.714 56.502 190.001 57.293 187.696 57.293ZM187.403 43.084C186.329 43.084 185.533 43.4551 185.015 44.1973C184.498 44.9297 184.205 46.0723 184.136 47.625H190.377V47.2734C190.308 45.7695 190.035 44.6953 189.556 44.0508C189.088 43.4062 188.37 43.084 187.403 43.084Z" fill="#FFD500"/>
<path d="M148.3 31V9.67188H153.383C155.873 9.67188 157.807 10.4531 159.184 12.0156C160.561 13.5684 161.249 15.7559 161.249 18.5781V22.1523C161.249 24.9746 160.551 27.1572 159.154 28.7002C157.758 30.2334 155.731 31 153.075 31H148.3ZM150.98 11.9863V28.7002H153.134C155.019 28.7002 156.396 28.1631 157.265 27.0889C158.134 26.0049 158.578 24.4033 158.598 22.2842V18.5049C158.598 16.2588 158.163 14.6133 157.294 13.5684C156.435 12.5137 155.131 11.9863 153.383 11.9863H150.98ZM169.631 31C169.475 30.6582 169.363 30.082 169.295 29.2715C168.377 30.6191 167.205 31.293 165.779 31.293C164.343 31.293 163.22 30.8926 162.41 30.0918C161.609 29.2812 161.209 28.1436 161.209 26.6787C161.209 25.0674 161.755 23.7881 162.849 22.8408C163.943 21.8936 165.442 21.4102 167.346 21.3906H169.251V19.7061C169.251 18.7588 169.041 18.085 168.621 17.6846C168.201 17.2842 167.561 17.084 166.702 17.084C165.921 17.084 165.286 17.3184 164.797 17.7871C164.309 18.2461 164.065 18.832 164.065 19.5449H161.472C161.472 18.7344 161.712 17.9629 162.19 17.2305C162.669 16.4883 163.313 15.9072 164.124 15.4873C164.934 15.0674 165.837 14.8574 166.834 14.8574C168.455 14.8574 169.685 15.2627 170.525 16.0732C171.375 16.874 171.809 18.0459 171.829 19.5889V27.5869C171.838 28.8076 172.004 29.8672 172.327 30.7656V31H169.631ZM166.174 28.9346C166.809 28.9346 167.415 28.7588 167.991 28.4072C168.567 28.0557 168.987 27.6162 169.251 27.0889V23.3096H167.786C166.555 23.3291 165.584 23.6074 164.871 24.1445C164.158 24.6719 163.801 25.4141 163.801 26.3711C163.801 27.2695 163.982 27.9238 164.343 28.334C164.705 28.7344 165.315 28.9346 166.174 28.9346ZM175.655 11.3125V15.1504H178.043V17.2451H175.655V27.0742C175.655 27.6992 175.758 28.1729 175.963 28.4951C176.168 28.8174 176.52 28.9785 177.018 28.9785C177.36 28.9785 177.706 28.9199 178.058 28.8027L178.029 31C177.443 31.1953 176.842 31.293 176.227 31.293C175.201 31.293 174.42 30.9268 173.883 30.1943C173.346 29.4619 173.077 28.4268 173.077 27.0889V17.2451H170.66V15.1504H173.077V11.3125H175.655ZM185.693 31C185.537 30.6582 185.425 30.082 185.356 29.2715C184.438 30.6191 183.266 31.293 181.841 31.293C180.405 31.293 179.282 30.8926 178.471 30.0918C177.671 29.2812 177.27 28.1436 177.27 26.6787C177.27 25.0674 177.817 23.7881 178.911 22.8408C180.005 21.8936 181.504 21.4102 183.408 21.3906H185.312V19.7061C185.312 18.7588 185.102 18.085 184.682 17.6846C184.263 17.2842 183.623 17.084 182.763 17.084C181.982 17.084 181.347 17.3184 180.859 17.7871C180.371 18.2461 180.127 18.832 180.127 19.5449H177.534C177.534 18.7344 177.773 17.9629 178.252 17.2305C178.73 16.4883 179.375 15.9072 180.185 15.4873C180.996 15.0674 181.899 14.8574 182.895 14.8574C184.516 14.8574 185.747 15.2627 186.587 16.0732C187.436 16.874 187.871 18.0459 187.89 19.5889V27.5869C187.9 28.8076 188.066 29.8672 188.388 30.7656V31H185.693ZM182.236 28.9346C182.871 28.9346 183.476 28.7588 184.053 28.4072C184.629 28.0557 185.049 27.6162 185.312 27.0889V23.3096H183.847C182.617 23.3291 181.645 23.6074 180.932 24.1445C180.22 24.6719 179.863 25.4141 179.863 26.3711C179.863 27.2695 180.044 27.9238 180.405 28.334C180.766 28.7344 181.377 28.9346 182.236 28.9346Z" fill="#FFD500"/>
<path fill-rule="evenodd" clip-rule="evenodd" d="M139.889 6H67.1112C64.8443 6 63 7.84398 63 10.1106V54.8894C63 57.156 64.8443 59 67.1112 59H139.889C142.156 59 144 57.156 144 54.8894V10.1106C144 7.84398 142.156 6 139.889 6ZM67.1112 8.62376H139.889C140.709 8.62376 141.376 9.29073 141.376 10.1106V18.5941H139.889C139.841 18.5941 139.801 18.5547 139.801 18.5066V15.7079C139.801 14.2129 138.585 12.9967 137.09 12.9967H69.9104C68.4151 12.9967 67.1987 14.2129 67.1987 15.7079V18.5066C67.1987 18.5547 67.1593 18.5941 67.1112 18.5941H65.6242V10.1106C65.6242 9.29073 66.2913 8.62376 67.1112 8.62376ZM139.889 56.3762H67.1112C66.2913 56.3762 65.6242 55.7093 65.6242 54.8894V21.2178H67.1112C68.6065 21.2178 69.8229 20.0016 69.8229 18.5066V15.7079C69.8229 15.6598 69.8623 15.6205 69.9104 15.6205H137.09C137.138 15.6205 137.177 15.6598 137.177 15.7079V18.5066C137.177 20.0016 138.394 21.2178 139.889 21.2178H141.376V54.8894C141.376 55.7093 140.709 56.3762 139.889 56.3762ZM133.917 24.1914H78.8077C78.8013 24.1913 78.795 24.1914 78.7887 24.1914H73.083C72.6612 24.1914 72.2651 24.3942 72.0185 24.7363C69.7811 27.8409 68.5983 31.4934 68.5983 35.2987C68.5983 39.1038 69.7809 42.7563 72.0183 45.861C72.2648 46.2032 72.661 46.4059 73.0828 46.4059H78.781C78.7831 46.4059 78.7852 46.4065 78.7872 46.4065C78.7903 46.4065 78.7935 46.4059 78.7965 46.4059H133.917C134.339 46.4059 134.735 46.2032 134.981 45.861C137.219 42.7565 138.402 39.1041 138.402 35.2987C138.402 31.4936 137.219 27.841 134.982 24.7363C134.735 24.3942 134.339 24.1914 133.917 24.1914ZM121.607 32.7312C122.54 33.2101 123.181 34.18 123.181 35.2987C123.181 36.4174 122.54 37.3874 121.607 37.8661V32.7312ZM118.983 43.7822H88.0173V26.8152H118.983V43.7822ZM79.2718 43.7822C76.8207 41.6355 75.4212 38.5705 75.4212 35.2987C75.4212 32.0269 76.8207 28.9618 79.2718 26.8152H81.9923C79.015 28.4753 76.9957 31.6549 76.9957 35.2987C76.9957 38.9424 79.015 42.122 81.9923 43.7822H79.2718ZM85.3931 37.8661C84.46 37.3874 83.8185 36.4174 83.8185 35.2987C83.8185 34.18 84.46 33.2101 85.3931 32.7312V37.8661ZM85.3931 29.9478C82.9861 30.5379 81.1944 32.7126 81.1944 35.2987C81.1944 37.8848 82.9861 40.0592 85.3931 40.6496V42.2591C82.1111 41.6419 79.6198 38.7567 79.6198 35.2988C79.6198 31.8411 82.1111 28.9557 85.3931 28.3385V29.9478ZM71.2225 35.2987C71.2225 32.2674 72.1017 29.3482 73.7716 26.8152H75.6824C73.8243 29.2218 72.797 32.1848 72.797 35.2987C72.797 38.4126 73.8243 41.3755 75.6824 43.7822H73.7716C72.1016 41.2492 71.2225 38.33 71.2225 35.2987ZM133.228 43.7822H121.607V40.6496C124.014 40.0595 125.806 37.8848 125.806 35.2987C125.806 32.7126 124.014 30.5382 121.607 29.9478V26.8152H133.228C134.898 29.3482 135.778 32.2674 135.778 35.2987C135.778 38.33 134.898 41.2492 133.228 43.7822Z" fill="#FFD500"/>
<path d="M8.75684 34.6719L14.3232 52.0742L19.8896 34.6719H23.3467V56H20.666V47.6943L20.915 39.374L15.334 56H13.2832L7.73145 39.4326L7.98047 47.6943V56H5.2998V34.6719H8.75684ZM23.6174 47.3428C23.6174 45.0381 24.174 43.2168 25.2873 41.8789C26.4104 40.5312 27.8898 39.8574 29.7258 39.8574C31.5617 39.8574 33.0363 40.5117 34.1496 41.8203C35.2727 43.1289 35.8488 44.9111 35.8781 47.167V48.8369C35.8781 51.1318 35.3215 52.9482 34.2082 54.2861C33.0949 55.624 31.6105 56.293 29.7551 56.293C27.9191 56.293 26.4445 55.6436 25.3312 54.3447C24.2277 53.0459 23.6564 51.2881 23.6174 49.0713V47.3428ZM26.2102 48.8369C26.2102 50.4678 26.5275 51.752 27.1623 52.6895C27.8068 53.6172 28.6711 54.0811 29.7551 54.0811C32.0402 54.0811 33.217 52.4307 33.2854 49.1299V47.3428C33.2854 45.7217 32.9631 44.4424 32.3186 43.5049C31.674 42.5576 30.8098 42.084 29.7258 42.084C28.6613 42.084 27.8068 42.5576 27.1623 43.5049C26.5275 44.4424 26.2102 45.7168 26.2102 47.3281V48.8369ZM40.0307 52.0596L43.0336 40.1504H45.6703L40.9682 56H39.0346L34.2738 40.1504H36.9105L40.0307 52.0596ZM47.7135 56H45.1207V40.1504H47.7135V56ZM47.9186 35.9463C47.9186 36.3857 47.7965 36.752 47.5523 37.0449C47.3082 37.3379 46.9371 37.4844 46.4391 37.4844C45.9508 37.4844 45.5846 37.3379 45.3404 37.0449C45.0963 36.752 44.9742 36.3857 44.9742 35.9463C44.9742 35.5068 45.0963 35.1357 45.3404 34.833C45.5846 34.5303 45.9508 34.3789 46.4391 34.3789C46.9273 34.3789 47.2936 34.5352 47.5377 34.8477C47.7916 35.1504 47.9186 35.5166 47.9186 35.9463ZM54.0193 56.293C52.0467 56.293 50.533 55.707 49.4783 54.5352C48.4236 53.3535 47.8865 51.625 47.867 49.3496V47.4307C47.867 45.0674 48.3797 43.2168 49.4051 41.8789C50.4402 40.5312 51.8807 39.8574 53.7264 39.8574C55.5818 39.8574 56.9686 40.4482 57.8865 41.6299C58.8045 42.8115 59.2732 44.6523 59.2928 47.1523V48.8516H50.4451V49.2178C50.4451 50.917 50.7625 52.1523 51.3973 52.9238C52.0418 53.6953 52.9646 54.0811 54.1658 54.0811C54.9275 54.0811 55.5965 53.9395 56.1727 53.6562C56.7586 53.3633 57.3055 52.9043 57.8133 52.2793L59.1609 53.9199C58.0379 55.502 56.324 56.293 54.0193 56.293ZM53.7264 42.084C52.6521 42.084 51.8563 42.4551 51.3387 43.1973C50.8211 43.9297 50.5281 45.0723 50.4598 46.625H56.7V46.2734C56.6316 44.7695 56.3582 43.6953 55.8797 43.0508C55.4109 42.4062 54.6932 42.084 53.7264 42.084Z" fill="#FFD500"/>
</svg>
