<svg width="80" height="64" viewBox="0 0 80 64" fill="none" xmlns="http://www.w3.org/2000/svg">
<rect width="80" height="64" fill="#212121"/>
<path d="M17.4664 26.7879C18.4893 27.6166 19.7209 28.0193 20.9455 28.0193C22.5606 28.0193 24.1615 27.3188 25.2551 25.9692C27.1755 23.5955 26.8091 20.1022 24.4367 18.1811C23.2878 17.2504 21.8505 16.8226 20.3721 16.9771C18.9013 17.1316 17.5781 17.8495 16.6467 18.9992C15.7154 20.149 15.2888 21.592 15.4427 23.0631C15.5975 24.534 16.3163 25.8566 17.4664 26.7879ZM18.56 20.5477C19.0769 19.9089 19.8122 19.5099 20.6293 19.424C20.7389 19.4125 20.8481 19.4072 20.9563 19.4072C21.6581 19.4072 22.3335 19.6452 22.8876 20.0935C24.2049 21.1607 24.409 23.1016 23.3418 24.4198C22.2746 25.7387 20.3312 25.9419 19.0142 24.8747C18.376 24.3572 17.9758 23.6225 17.8905 22.8053C17.8052 21.9881 18.0422 21.1865 18.56 20.5477Z" fill="#FFD500"/>
<path d="M42.2028 41.6362C40.8039 41.155 39.303 41.2463 37.9727 41.8953C36.6436 42.5437 35.6461 43.6708 35.164 45.0697C34.6819 46.4686 34.7747 47.9714 35.4224 49.2999C36.0715 50.6296 37.1986 51.627 38.5975 52.1085C39.1876 52.3121 39.7969 52.4132 40.405 52.4132C41.2343 52.4132 42.0598 52.2246 42.828 51.8501C44.1571 51.2017 45.1545 50.0743 45.6366 48.6757C46.1187 47.2771 46.026 45.774 45.3769 44.4449C44.7292 43.1158 43.6017 42.118 42.2028 41.6362ZM43.3085 47.874C43.0417 48.6515 42.4876 49.2776 41.7486 49.6377C41.0096 49.9979 40.1779 50.0504 39.3979 49.7814C38.6214 49.514 37.9956 48.9599 37.6348 48.2215C37.2743 47.4831 37.2237 46.6482 37.4918 45.8714C37.7586 45.0939 38.3127 44.4678 39.0517 44.1076C39.4845 43.8961 39.9433 43.7965 40.3954 43.7965C41.5346 43.7965 42.6319 44.4322 43.1655 45.5239C43.526 46.2626 43.5766 47.0972 43.3085 47.874Z" fill="#FFD500"/>
<path d="M53.752 33.0844C52.9683 31.8297 51.7425 30.9561 50.3005 30.6226C48.8632 30.2922 47.3777 30.5385 46.1206 31.3225C44.866 32.1068 43.9923 33.3319 43.6594 34.7733C42.9732 37.7483 44.8349 40.7275 47.8105 41.415C48.2275 41.5112 48.6444 41.5575 49.0555 41.5575C51.5756 41.5575 53.8615 39.8219 54.4516 37.2646C54.7845 35.8238 54.5357 34.339 53.752 33.0844ZM52.0528 36.7114C51.6718 38.3632 50.0204 39.3957 48.3634 39.0172C46.711 38.6349 45.676 36.9795 46.0582 35.3265C46.2422 34.5261 46.7287 33.846 47.4258 33.4104C47.9209 33.1008 48.4797 32.9417 49.0493 32.9417C49.2814 32.9417 49.5156 32.968 49.7477 33.0211C50.5481 33.2063 51.2294 33.6921 51.6644 34.3893C52.1009 35.0851 52.238 35.9104 52.0528 36.7114Z" fill="#FFD500"/>
<path d="M23.2577 34.7733C22.9248 33.3316 22.0512 32.1065 20.7966 31.3225C19.5419 30.5385 18.0565 30.2894 16.6166 30.6229C15.1743 30.9558 13.9485 31.8294 13.1652 33.084C12.3818 34.3387 12.1327 35.8235 12.4656 37.264C13.0556 39.8219 15.3415 41.5568 17.8616 41.5568C18.2727 41.5568 18.6897 41.5112 19.1067 41.4144C22.0825 40.7275 23.944 37.7483 23.2577 34.7733ZM18.5541 39.0162C16.903 39.3997 15.2469 38.3628 14.8647 36.7105C14.6795 35.9101 14.8166 35.0851 15.2528 34.3886C15.6878 33.6915 16.3694 33.2053 17.1695 33.0211C17.4016 32.9674 17.6358 32.9413 17.8679 32.9413C18.4375 32.9413 18.9962 33.1005 19.4914 33.4101C20.1885 33.8457 20.6753 34.5261 20.8589 35.3262C21.2411 36.9792 20.2065 38.6349 18.5541 39.0162Z" fill="#FFD500"/>
<path d="M38.9964 16.4605C38.9964 13.4068 36.5123 10.9226 33.4586 10.9226C30.4048 10.9226 27.9207 13.4068 27.9207 16.4605C27.9207 19.5142 30.4048 21.9984 33.4586 21.9984C36.5123 21.9984 38.9964 19.5142 38.9964 16.4605ZM33.4586 19.5369C31.7615 19.5369 30.3819 18.1566 30.3819 16.4602C30.3819 14.7638 31.7615 13.3835 33.4586 13.3835C35.1556 13.3835 36.5353 14.7638 36.5353 16.4602C36.5353 18.1566 35.1556 19.5369 33.4586 19.5369Z" fill="#FFD500"/>
<path d="M45.9717 28.0193C47.1962 28.0193 48.4282 27.6166 49.4508 26.7879C50.6008 25.8566 51.3197 24.534 51.4745 23.0625C51.6284 21.5916 51.2018 20.1481 50.2704 18.9986C48.3488 16.6262 44.8539 16.2604 42.4817 18.1802C40.1081 20.1018 39.7417 23.5955 41.6621 25.9689C42.7557 27.3184 44.3565 28.0193 45.9717 28.0193ZM44.0296 20.0935C45.3503 19.0244 47.2899 19.2301 48.3571 20.5477C48.8753 21.1865 49.112 21.9881 49.0263 22.8053C48.941 23.6225 48.5408 24.3575 47.9026 24.8747C46.5819 25.9438 44.6435 25.7387 43.575 24.4198C42.5081 23.1016 42.7126 21.1607 44.0296 20.0935Z" fill="#FFD500"/>
<path d="M28.9448 41.8953C27.6145 41.2462 26.1132 41.1544 24.7147 41.6362C23.3161 42.118 22.1886 43.1155 21.5409 44.4449C20.8918 45.7739 20.7994 47.2768 21.2812 48.6757C21.763 50.0746 22.7604 51.2017 24.0898 51.8501C24.8577 52.2246 25.6832 52.4132 26.5128 52.4132C27.1197 52.4132 27.7302 52.3124 28.3203 52.1085C29.7192 51.6273 30.8463 50.6296 31.4941 49.3005C32.1432 47.9714 32.2356 46.4686 31.7538 45.0697C31.272 43.6708 30.2739 42.5434 28.9448 41.8953ZM29.2811 48.2221C28.9219 48.9599 28.2955 49.5139 27.5193 49.7814C26.7406 50.0507 25.9075 49.9976 25.1685 49.6377C24.4295 49.2779 23.8754 48.6518 23.6086 47.874C23.3406 47.0971 23.3912 46.2623 23.7517 45.5239C24.2853 44.4321 25.3826 43.7965 26.5218 43.7965C26.9739 43.7965 27.4327 43.8964 27.8655 44.1076C28.6045 44.4675 29.1586 45.0936 29.4254 45.8714C29.6935 46.6482 29.6429 47.4828 29.2811 48.2221Z" fill="#FFD500"/>
<path d="M72.2162 57.5508C72.142 56.8761 71.5411 56.384 70.8573 56.4638C60.9112 57.5549 56.9419 46.0935 56.7772 45.6049C56.7353 45.4799 56.6621 45.3772 56.5879 45.2763C58.7029 41.4755 59.9178 37.1082 59.9178 32.4586C59.9178 17.8693 48.0488 6 33.4592 6C18.8696 6 7 17.8696 7 32.4586C7 47.0475 18.869 58.9172 33.4586 58.9172C42.3446 58.9172 50.2031 54.4999 55.0035 47.7611C56.4722 51.0295 60.9348 59 69.5254 59C70.0448 59 70.5793 58.9705 71.1285 58.9094C71.8039 58.8349 72.2906 58.2262 72.2162 57.5508ZM33.4586 56.456C20.2267 56.456 9.46117 45.6908 9.46117 32.4586C9.46117 19.2263 20.2267 8.46117 33.4586 8.46117C46.6905 8.46117 57.456 19.2263 57.456 32.4586C57.456 45.6908 46.6905 56.456 33.4586 56.456Z" fill="#FFD500"/>
</svg>
