<svg width="200" height="64" viewBox="0 0 200 64" fill="none" xmlns="http://www.w3.org/2000/svg">
<rect width="200" height="64" fill="#212121"/>
<path d="M42.7656 12.9863H37.1553V32H34.4746V12.9863H28.8789V10.6719H42.7656V12.9863ZM47.2416 17.7764C48.2279 16.4971 49.4877 15.8574 51.0209 15.8574C53.8236 15.8574 55.2445 17.7275 55.2836 21.4678V32H52.7055V21.585C52.7055 20.3447 52.4955 19.4658 52.0756 18.9482C51.6654 18.4209 51.0453 18.1572 50.2152 18.1572C49.5707 18.1572 48.9896 18.3721 48.4721 18.8018C47.9643 19.2314 47.5541 19.793 47.2416 20.4863V32H44.6488V9.5H47.2416V17.7764ZM63.9197 32.293C61.9471 32.293 60.4334 31.707 59.3787 30.5352C58.324 29.3535 57.7869 27.625 57.7674 25.3496V23.4307C57.7674 21.0674 58.2801 19.2168 59.3055 17.8789C60.3406 16.5312 61.7811 15.8574 63.6268 15.8574C65.4822 15.8574 66.8689 16.4482 67.7869 17.6299C68.7049 18.8115 69.1736 20.6523 69.1932 23.1523V24.8516H60.3455V25.2178C60.3455 26.917 60.6629 28.1523 61.2977 28.9238C61.9422 29.6953 62.865 30.0811 64.0662 30.0811C64.8279 30.0811 65.4969 29.9395 66.073 29.6562C66.659 29.3633 67.2059 28.9043 67.7137 28.2793L69.0613 29.9199C67.9383 31.502 66.2244 32.293 63.9197 32.293ZM63.6268 18.084C62.5525 18.084 61.7566 18.4551 61.2391 19.1973C60.7215 19.9297 60.4285 21.0723 60.3602 22.625H66.6004V22.2734C66.532 20.7695 66.2586 19.6953 65.7801 19.0508C65.3113 18.4062 64.5936 18.084 63.6268 18.084Z" fill="#FFD500"/>
<path d="M144.3 57V35.6719H150.379C152.322 35.6719 153.782 36.1455 154.759 37.0928C155.745 38.04 156.238 39.4609 156.238 41.3555C156.238 42.3516 155.989 43.2305 155.491 43.9922C154.993 44.7539 154.319 45.3447 153.47 45.7646C154.446 46.0576 155.218 46.6582 155.784 47.5664C156.36 48.4746 156.648 49.5684 156.648 50.8477C156.648 52.7617 156.121 54.2656 155.066 55.3594C154.021 56.4531 152.527 57 150.584 57H144.3ZM146.98 47.0244V54.7002H150.643C151.658 54.7002 152.464 54.3682 153.06 53.7041C153.655 53.0303 153.953 52.0879 153.953 50.877C153.953 48.3086 152.869 47.0244 150.701 47.0244H146.98ZM146.98 44.7686H150.423C151.351 44.7686 152.098 44.4561 152.664 43.8311C153.24 43.2061 153.528 42.376 153.528 41.3408C153.528 40.1689 153.27 39.3193 152.752 38.792C152.234 38.2549 151.443 37.9863 150.379 37.9863H146.98V44.7686ZM167.57 57C167.413 56.6582 167.301 56.082 167.233 55.2715C166.315 56.6191 165.143 57.293 163.717 57.293C162.282 57.293 161.159 56.8926 160.348 56.0918C159.547 55.2812 159.147 54.1436 159.147 52.6787C159.147 51.0674 159.694 49.7881 160.788 48.8408C161.881 47.8936 163.38 47.4102 165.285 47.3906H167.189V45.7061C167.189 44.7588 166.979 44.085 166.559 43.6846C166.139 43.2842 165.499 43.084 164.64 43.084C163.859 43.084 163.224 43.3184 162.736 43.7871C162.247 44.2461 162.003 44.832 162.003 45.5449H159.411C159.411 44.7344 159.65 43.9629 160.128 43.2305C160.607 42.4883 161.251 41.9072 162.062 41.4873C162.872 41.0674 163.776 40.8574 164.772 40.8574C166.393 40.8574 167.623 41.2627 168.463 42.0732C169.313 42.874 169.747 44.0459 169.767 45.5889V53.5869C169.777 54.8076 169.943 55.8672 170.265 56.7656V57H167.57ZM164.113 54.9346C164.747 54.9346 165.353 54.7588 165.929 54.4072C166.505 54.0557 166.925 53.6162 167.189 53.0889V49.3096H165.724C164.494 49.3291 163.522 49.6074 162.809 50.1445C162.096 50.6719 161.74 51.4141 161.74 52.3711C161.74 53.2695 161.92 53.9238 162.282 54.334C162.643 54.7344 163.253 54.9346 164.113 54.9346ZM180.6 52.9424C180.6 52.3857 180.39 51.9072 179.971 51.5068C179.551 51.1064 178.74 50.6377 177.539 50.1006C176.142 49.5244 175.156 49.0312 174.58 48.6211C174.013 48.2109 173.589 47.7471 173.305 47.2295C173.022 46.7021 172.881 46.0771 172.881 45.3545C172.881 44.0654 173.349 42.9961 174.287 42.1465C175.234 41.2871 176.44 40.8574 177.905 40.8574C179.448 40.8574 180.688 41.3066 181.626 42.2051C182.563 43.1035 183.032 44.2559 183.032 45.6621H180.454C180.454 44.9492 180.215 44.3438 179.736 43.8457C179.258 43.3379 178.647 43.084 177.905 43.084C177.143 43.084 176.543 43.2842 176.103 43.6846C175.674 44.0752 175.459 44.6025 175.459 45.2666C175.459 45.7939 175.615 46.2188 175.928 46.541C176.25 46.8633 177.016 47.2881 178.227 47.8154C180.151 48.5674 181.46 49.3047 182.153 50.0273C182.846 50.7402 183.193 51.6484 183.193 52.752C183.193 54.1289 182.72 55.2324 181.772 56.0625C180.825 56.8828 179.555 57.293 177.964 57.293C176.313 57.293 174.975 56.8193 173.95 55.8721C172.925 54.9248 172.412 53.7236 172.412 52.2686H175.019C175.049 53.1475 175.317 53.8359 175.825 54.334C176.333 54.832 177.046 55.0811 177.964 55.0811C178.823 55.0811 179.477 54.8906 179.927 54.5098C180.376 54.1191 180.6 53.5967 180.6 52.9424ZM191.346 57.293C189.373 57.293 187.86 56.707 186.805 55.5352C185.75 54.3535 185.213 52.625 185.194 50.3496V48.4307C185.194 46.0674 185.706 44.2168 186.732 42.8789C187.767 41.5312 189.207 40.8574 191.053 40.8574C192.908 40.8574 194.295 41.4482 195.213 42.6299C196.131 43.8115 196.6 45.6523 196.619 48.1523V49.8516H187.772V50.2178C187.772 51.917 188.089 53.1523 188.724 53.9238C189.368 54.6953 190.291 55.0811 191.492 55.0811C192.254 55.0811 192.923 54.9395 193.499 54.6562C194.085 54.3633 194.632 53.9043 195.14 53.2793L196.487 54.9199C195.364 56.502 193.651 57.293 191.346 57.293ZM191.053 43.084C189.979 43.084 189.183 43.4551 188.665 44.1973C188.148 44.9297 187.855 46.0723 187.786 47.625H194.027V47.2734C193.958 45.7695 193.685 44.6953 193.206 44.0508C192.737 43.4062 192.02 43.084 191.053 43.084Z" fill="#FFD500"/>
<path d="M134.3 33V11.6719H139.383C141.873 11.6719 143.807 12.4531 145.184 14.0156C146.561 15.5684 147.249 17.7559 147.249 20.5781V24.1523C147.249 26.9746 146.551 29.1572 145.154 30.7002C143.758 32.2334 141.731 33 139.075 33H134.3ZM136.98 13.9863V30.7002H139.134C141.019 30.7002 142.396 30.1631 143.265 29.0889C144.134 28.0049 144.578 26.4033 144.598 24.2842V20.5049C144.598 18.2588 144.163 16.6133 143.294 15.5684C142.435 14.5137 141.131 13.9863 139.383 13.9863H136.98ZM158.331 33C158.175 32.6582 158.063 32.082 157.995 31.2715C157.077 32.6191 155.905 33.293 154.479 33.293C153.043 33.293 151.92 32.8926 151.11 32.0918C150.309 31.2812 149.909 30.1436 149.909 28.6787C149.909 27.0674 150.455 25.7881 151.549 24.8408C152.643 23.8936 154.142 23.4102 156.046 23.3906H157.951V21.7061C157.951 20.7588 157.741 20.085 157.321 19.6846C156.901 19.2842 156.261 19.084 155.402 19.084C154.621 19.084 153.986 19.3184 153.497 19.7871C153.009 20.2461 152.765 20.832 152.765 21.5449H150.172C150.172 20.7344 150.412 19.9629 150.89 19.2305C151.369 18.4883 152.013 17.9072 152.824 17.4873C153.634 17.0674 154.538 16.8574 155.534 16.8574C157.155 16.8574 158.385 17.2627 159.225 18.0732C160.075 18.874 160.509 20.0459 160.529 21.5889V29.5869C160.538 30.8076 160.704 31.8672 161.027 32.7656V33H158.331ZM154.874 30.9346C155.509 30.9346 156.115 30.7588 156.691 30.4072C157.267 30.0557 157.687 29.6162 157.951 29.0889V25.3096H156.486C155.255 25.3291 154.284 25.6074 153.571 26.1445C152.858 26.6719 152.501 27.4141 152.501 28.3711C152.501 29.2695 152.682 29.9238 153.043 30.334C153.405 30.7344 154.015 30.9346 154.874 30.9346ZM167.055 13.3125V17.1504H169.443V19.2451H167.055V29.0742C167.055 29.6992 167.158 30.1729 167.363 30.4951C167.568 30.8174 167.92 30.9785 168.418 30.9785C168.76 30.9785 169.106 30.9199 169.458 30.8027L169.429 33C168.843 33.1953 168.242 33.293 167.627 33.293C166.601 33.293 165.82 32.9268 165.283 32.1943C164.746 31.4619 164.477 30.4268 164.477 29.0889V19.2451H162.06V17.1504H164.477V13.3125H167.055ZM179.793 33C179.637 32.6582 179.525 32.082 179.456 31.2715C178.538 32.6191 177.366 33.293 175.941 33.293C174.505 33.293 173.382 32.8926 172.571 32.0918C171.771 31.2812 171.37 30.1436 171.37 28.6787C171.37 27.0674 171.917 25.7881 173.011 24.8408C174.105 23.8936 175.604 23.4102 177.508 23.3906H179.412V21.7061C179.412 20.7588 179.202 20.085 178.782 19.6846C178.362 19.2842 177.723 19.084 176.863 19.084C176.082 19.084 175.447 19.3184 174.959 19.7871C174.471 20.2461 174.227 20.832 174.227 21.5449H171.634C171.634 20.7344 171.873 19.9629 172.352 19.2305C172.83 18.4883 173.475 17.9072 174.285 17.4873C175.096 17.0674 175.999 16.8574 176.995 16.8574C178.616 16.8574 179.847 17.2627 180.687 18.0732C181.536 18.874 181.971 20.0459 181.99 21.5889V29.5869C182 30.8076 182.166 31.8672 182.488 32.7656V33H179.793ZM176.336 30.9346C176.971 30.9346 177.576 30.7588 178.153 30.4072C178.729 30.0557 179.149 29.6162 179.412 29.0889V25.3096H177.947C176.717 25.3291 175.745 25.6074 175.032 26.1445C174.32 26.6719 173.963 27.4141 173.963 28.3711C173.963 29.2695 174.144 29.9238 174.505 30.334C174.866 30.7344 175.477 30.9346 176.336 30.9346Z" fill="#FFD500"/>
<path d="M85.4664 25.7879C86.4893 26.6166 87.7209 27.0193 88.9455 27.0193C90.5606 27.0193 92.1615 26.3188 93.2551 24.9692C95.1755 22.5955 94.8091 19.1022 92.4367 17.1811C91.2878 16.2504 89.8505 15.8226 88.3721 15.9771C86.9013 16.1316 85.5781 16.8495 84.6467 17.9992C83.7154 19.149 83.2888 20.592 83.4427 22.0631C83.5975 23.534 84.3163 24.8566 85.4664 25.7879ZM86.56 19.5477C87.0769 18.9089 87.8122 18.5099 88.6293 18.424C88.7389 18.4125 88.8481 18.4072 88.9563 18.4072C89.6581 18.4072 90.3335 18.6452 90.8876 19.0935C92.2049 20.1607 92.409 22.1016 91.3418 23.4198C90.2746 24.7387 88.3312 24.9419 87.0142 23.8747C86.376 23.3572 85.9758 22.6225 85.8905 21.8053C85.8052 20.9881 86.0422 20.1865 86.56 19.5477Z" fill="#FFD500"/>
<path d="M110.203 40.6362C108.804 40.155 107.303 40.2463 105.973 40.8953C104.644 41.5437 103.646 42.6708 103.164 44.0697C102.682 45.4686 102.775 46.9714 103.422 48.2999C104.071 49.6296 105.199 50.627 106.597 51.1085C107.188 51.3121 107.797 51.4132 108.405 51.4132C109.234 51.4132 110.06 51.2246 110.828 50.8501C112.157 50.2017 113.155 49.0743 113.637 47.6757C114.119 46.2771 114.026 44.774 113.377 43.4449C112.729 42.1158 111.602 41.118 110.203 40.6362ZM111.309 46.874C111.042 47.6515 110.488 48.2776 109.749 48.6377C109.01 48.9979 108.178 49.0504 107.398 48.7814C106.621 48.514 105.996 47.9599 105.635 47.2215C105.274 46.4831 105.224 45.6482 105.492 44.8714C105.759 44.0939 106.313 43.4678 107.052 43.1076C107.484 42.8961 107.943 42.7965 108.395 42.7965C109.535 42.7965 110.632 43.4322 111.166 44.5239C111.526 45.2626 111.577 46.0972 111.309 46.874Z" fill="#FFD500"/>
<path d="M121.752 32.0844C120.968 30.8297 119.743 29.9561 118.301 29.6226C116.863 29.2922 115.378 29.5385 114.121 30.3225C112.866 31.1068 111.992 32.3319 111.659 33.7733C110.973 36.7483 112.835 39.7275 115.811 40.415C116.227 40.5112 116.644 40.5575 117.056 40.5575C119.576 40.5575 121.862 38.8219 122.452 36.2646C122.784 34.8238 122.536 33.339 121.752 32.0844ZM120.053 35.7114C119.672 37.3632 118.02 38.3957 116.363 38.0172C114.711 37.6349 113.676 35.9795 114.058 34.3265C114.242 33.5261 114.729 32.846 115.426 32.4104C115.921 32.1008 116.48 31.9417 117.049 31.9417C117.281 31.9417 117.516 31.968 117.748 32.0211C118.548 32.2063 119.229 32.6921 119.664 33.3893C120.101 34.0851 120.238 34.9104 120.053 35.7114Z" fill="#FFD500"/>
<path d="M91.2577 33.7733C90.9248 32.3316 90.0512 31.1065 88.7966 30.3225C87.5419 29.5385 86.0565 29.2894 84.6166 29.6229C83.1743 29.9558 81.9485 30.8294 81.1652 32.084C80.3818 33.3387 80.1327 34.8235 80.4656 36.264C81.0556 38.8219 83.3415 40.5568 85.8616 40.5568C86.2727 40.5568 86.6897 40.5112 87.1067 40.4144C90.0825 39.7275 91.944 36.7483 91.2577 33.7733ZM86.5541 38.0162C84.903 38.3997 83.2469 37.3628 82.8647 35.7105C82.6795 34.9101 82.8166 34.0851 83.2528 33.3886C83.6878 32.6915 84.3694 32.2053 85.1695 32.0211C85.4016 31.9674 85.6358 31.9413 85.8679 31.9413C86.4375 31.9413 86.9962 32.1005 87.4914 32.4101C88.1885 32.8457 88.6753 33.5261 88.8589 34.3262C89.2411 35.9792 88.2065 37.6349 86.5541 38.0162Z" fill="#FFD500"/>
<path d="M106.996 15.4605C106.996 12.4068 104.512 9.92264 101.459 9.92264C98.4048 9.92264 95.9207 12.4068 95.9207 15.4605C95.9207 18.5142 98.4048 20.9984 101.459 20.9984C104.512 20.9984 106.996 18.5142 106.996 15.4605ZM101.459 18.5369C99.7615 18.5369 98.3819 17.1566 98.3819 15.4602C98.3819 13.7638 99.7615 12.3835 101.459 12.3835C103.156 12.3835 104.535 13.7638 104.535 15.4602C104.535 17.1566 103.156 18.5369 101.459 18.5369Z" fill="#FFD500"/>
<path d="M113.972 27.0193C115.196 27.0193 116.428 26.6166 117.451 25.7879C118.601 24.8566 119.32 23.534 119.474 22.0625C119.628 20.5916 119.202 19.1481 118.27 17.9986C116.349 15.6262 112.854 15.2604 110.482 17.1802C108.108 19.1018 107.742 22.5955 109.662 24.9689C110.756 26.3184 112.357 27.0193 113.972 27.0193ZM112.03 19.0935C113.35 18.0244 115.29 18.2301 116.357 19.5477C116.875 20.1865 117.112 20.9881 117.026 21.8053C116.941 22.6225 116.541 23.3575 115.903 23.8747C114.582 24.9438 112.644 24.7387 111.575 23.4198C110.508 22.1016 110.713 20.1607 112.03 19.0935Z" fill="#FFD500"/>
<path d="M96.9448 40.8953C95.6145 40.2462 94.1132 40.1544 92.7147 40.6362C91.3161 41.118 90.1886 42.1155 89.5409 43.4449C88.8918 44.7739 88.7994 46.2768 89.2812 47.6757C89.763 49.0746 90.7604 50.2017 92.0898 50.8501C92.8577 51.2246 93.6832 51.4132 94.5128 51.4132C95.1197 51.4132 95.7302 51.3124 96.3203 51.1085C97.7192 50.6273 98.8463 49.6296 99.4941 48.3005C100.143 46.9714 100.236 45.4686 99.7538 44.0697C99.272 42.6708 98.2739 41.5434 96.9448 40.8953ZM97.2811 47.2221C96.9219 47.9599 96.2955 48.5139 95.5193 48.7814C94.7406 49.0507 93.9075 48.9976 93.1685 48.6377C92.4295 48.2779 91.8754 47.6518 91.6086 46.874C91.3406 46.0971 91.3912 45.2623 91.7517 44.5239C92.2853 43.4321 93.3826 42.7965 94.5218 42.7965C94.9739 42.7965 95.4327 42.8964 95.8655 43.1076C96.6045 43.4675 97.1586 44.0936 97.4254 44.8714C97.6935 45.6482 97.6429 46.4828 97.2811 47.2221Z" fill="#FFD500"/>
<path d="M140.216 56.5508C140.142 55.8761 139.541 55.384 138.857 55.4638C128.911 56.5549 124.942 45.0935 124.777 44.6049C124.735 44.4799 124.662 44.3772 124.588 44.2763C126.703 40.4755 127.918 36.1082 127.918 31.4586C127.918 16.8693 116.049 5 101.459 5C86.8696 5 75 16.8696 75 31.4586C75 46.0475 86.869 57.9172 101.459 57.9172C110.345 57.9172 118.203 53.4999 123.004 46.7611C124.472 50.0295 128.935 58 137.525 58C138.045 58 138.579 57.9705 139.128 57.9094C139.804 57.8349 140.291 57.2262 140.216 56.5508ZM101.459 55.456C88.2267 55.456 77.4612 44.6908 77.4612 31.4586C77.4612 18.2263 88.2267 7.46117 101.459 7.46117C114.691 7.46117 125.456 18.2263 125.456 31.4586C125.456 44.6908 114.691 55.456 101.459 55.456Z" fill="#FFD500"/>
<path d="M8.75684 34.6719L14.3232 52.0742L19.8896 34.6719H23.3467V56H20.666V47.6943L20.915 39.374L15.334 56H13.2832L7.73145 39.4326L7.98047 47.6943V56H5.2998V34.6719H8.75684ZM26.1674 47.3428C26.1674 45.0381 26.724 43.2168 27.8373 41.8789C28.9604 40.5312 30.4398 39.8574 32.2758 39.8574C34.1117 39.8574 35.5863 40.5117 36.6996 41.8203C37.8227 43.1289 38.3988 44.9111 38.4281 47.167V48.8369C38.4281 51.1318 37.8715 52.9482 36.7582 54.2861C35.6449 55.624 34.1605 56.293 32.3051 56.293C30.4691 56.293 28.9945 55.6436 27.8813 54.3447C26.7777 53.0459 26.2064 51.2881 26.1674 49.0713V47.3428ZM28.7602 48.8369C28.7602 50.4678 29.0775 51.752 29.7123 52.6895C30.3568 53.6172 31.2211 54.0811 32.3051 54.0811C34.5902 54.0811 35.767 52.4307 35.8354 49.1299V47.3428C35.8354 45.7217 35.5131 44.4424 34.8686 43.5049C34.224 42.5576 33.3598 42.084 32.2758 42.084C31.2113 42.084 30.3568 42.5576 29.7123 43.5049C29.0775 44.4424 28.7602 45.7168 28.7602 47.3281V48.8369ZM45.1307 52.0596L48.1336 40.1504H50.7703L46.0682 56H44.1346L39.3738 40.1504H42.0105L45.1307 52.0596ZM55.3635 56H52.7707V40.1504H55.3635V56ZM55.5686 35.9463C55.5686 36.3857 55.4465 36.752 55.2023 37.0449C54.9582 37.3379 54.5871 37.4844 54.0891 37.4844C53.6008 37.4844 53.2346 37.3379 52.9904 37.0449C52.7463 36.752 52.6242 36.3857 52.6242 35.9463C52.6242 35.5068 52.7463 35.1357 52.9904 34.833C53.2346 34.5303 53.6008 34.3789 54.0891 34.3789C54.5773 34.3789 54.9436 34.5352 55.1877 34.8477C55.4416 35.1504 55.5686 35.5166 55.5686 35.9463ZM64.2193 56.293C62.2467 56.293 60.733 55.707 59.6783 54.5352C58.6236 53.3535 58.0865 51.625 58.067 49.3496V47.4307C58.067 45.0674 58.5797 43.2168 59.6051 41.8789C60.6402 40.5312 62.0807 39.8574 63.9264 39.8574C65.7818 39.8574 67.1686 40.4482 68.0865 41.6299C69.0045 42.8115 69.4732 44.6523 69.4928 47.1523V48.8516H60.6451V49.2178C60.6451 50.917 60.9625 52.1523 61.5973 52.9238C62.2418 53.6953 63.1646 54.0811 64.3658 54.0811C65.1275 54.0811 65.7965 53.9395 66.3727 53.6562C66.9586 53.3633 67.5055 52.9043 68.0133 52.2793L69.3609 53.9199C68.2379 55.502 66.524 56.293 64.2193 56.293ZM63.9264 42.084C62.8521 42.084 62.0563 42.4551 61.5387 43.1973C61.0211 43.9297 60.7281 45.0723 60.6598 46.625H66.9V46.2734C66.8316 44.7695 66.5582 43.6953 66.0797 43.0508C65.6109 42.4062 64.8932 42.084 63.9264 42.084Z" fill="#FFD500"/>
</svg>
